<svg xmlns="http://www.w3.org/2000/svg" viewBox="0 0 186.03 239.48"><defs><style>.cls-1{fill:#fff;}</style></defs><title>favicon-white</title><g id="Capa_2" data-name="Capa 2"><g id="Layer_1" data-name="Layer 1"><path class="cls-1" d="M40.1,55.13a11.19,11.19,0,0,1-5.84-1.62c-.37.37-.32,3.48.15,5C43.23,87.09,75,74.6,94.93,96.42c0,0,.37-4.44-1.23-7.57a35.57,35.57,0,0,0-12-13.16c-3-1.94-10.51-4.38-16.21-2.06-1,.41-1.44,0-1-.76A22,22,0,0,1,74,64.44a49.18,49.18,0,0,1,13.32-3.72c1.37-.19,1.47,1.1.93,1.32-.7.27-2.07.92-3.7,1.77-1.13.59,0,2.1,2.21,1.06a31.59,31.59,0,0,1,6.21-2.3c1.64-.35,1.87.59.71,1.25a16.66,16.66,0,0,0-2.15,1.49c-1.87,1.42,1.2,3.09,4.06,3.16,4,.1,5.37-.49,3.49-5.41-3.34-8.72-13.77-18.6-26.06-23C58.67,35,38.33,16.15,35,6.53c-1-2.94-.47-3.73-1.48-2.22C30.34,9.05,30,22.69,33.15,29.09c.74,1.48,2.29,3.25,1.85,3a17.8,17.8,0,0,1-5.92-6.28c-2.19,2.66-6.81,13.56.74,21.82C33.67,51.81,40.26,55.12,40.1,55.13Z"/><path class="cls-1" d="M182,25.87c-1.14-.95-1.44-1.36-1.51-1.28s-.06,0-.09.07C174.09,34.64,166,38.34,166,38.34l2.7-2.51h0a36.26,36.26,0,0,0,8.11-9.76,22.72,22.72,0,0,0,2-15A17.42,17.42,0,0,0,171.09,0l.32.81c1.24,5-2.38,11.79-5.15,15.79a47.92,47.92,0,0,1-11.33,11.18c-8.39,6.14-18,10.46-27.16,15.18C112.91,50.67,102.68,65.76,99.9,84c-1.27,8.35,8.23,28.17-12.82,50.46-1.58,1.66-5.59,2-7.43,1.24h0c2.18.89,6.19,0,8.66-1.24,0,0,10.55-4.7,19.93-17.33l6.35-9.52a33.33,33.33,0,0,0,1.83-3.11l.36-.69a34.77,34.77,0,0,1,10-11.77,50.85,50.85,0,0,1,12.72-6.68c4.47-1.68,9.07-3,13.63-4.38a74.25,74.25,0,0,0,12.64-4.89,27.69,27.69,0,0,0,9.78-8.16,25.18,25.18,0,0,0,3.23-6.19,28.84,28.84,0,0,0,1-3.28c.33-1.38.65-5.7.28-6.81-3,.74-6.85,3.91-6.85,3.91a97.31,97.31,0,0,0,9.48-10.63C189.25,35.91,184.61,28.09,182,25.87Z"/><path class="cls-1" d="M87.08,134.47c-3.3,1.55-6.2,1.24-7.44.35,0,0-1.5-.91-1.9-1.2-4-3-12.75-6.46-26-1.38s-23.65,12.52-28,12,12.92,6.68,29.1.3c0,0,15.19-4.27,23-2.09,0,0-19.17,2.07-30.08,10.31S16.09,181.9,0,185.24c0,0,21.54,5.53,44.84-7.91,0,0,10.19-5.78,18.53-18.49,0,0,4.77-8.05,12.39-10.61,0,0-8.91,12-20.23,43.63s-9.15,40.81-18.2,47.62c0,0,15.85-2.29,29.34-21.43s9.5-40.13,9.5-40.13-2.45-17.65,3.88-27.07c0,0-2.33,28.85,16.13,48s26.56,28.77,27.09,33.08c0,0,7-21.07-6.75-40.85S86,155.16,85.2,147.57c0,0,12.54,29.58,42.46,22,0,0-7.15-3.38-13.38-12.36s-13.56-13.95-21.1-15.81c0,0-.79-.13-1.83-.41-4.27-1.58-3.8-5.92-3-6.53"/></g></g></svg>