<svg xmlns="http://www.w3.org/2000/svg" viewBox="0 0 108.36 139.5"><defs><style>.cls-1{fill:#154a94;}</style></defs><title>favicon</title><g id="Capa_2" data-name="Capa 2"><g id="Layer_1" data-name="Layer 1"><path class="cls-1" d="M23.36,32.12a6.52,6.52,0,0,1-3.4-.95,5.86,5.86,0,0,0,.08,2.9c5.14,16.66,23.62,9.38,35.26,22.1a9.66,9.66,0,0,0-.72-4.41,20.69,20.69,0,0,0-7-7.67c-1.72-1.13-6.12-2.55-9.44-1.2-.59.24-.84,0-.59-.44a12.85,12.85,0,0,1,5.54-4.91,28.44,28.44,0,0,1,7.76-2.17c.79-.11.85.64.54.77s-1.21.53-2.16,1c-.66.34,0,1.23,1.29.62a18.4,18.4,0,0,1,3.62-1.34c.95-.21,1.09.34.41.73a8.62,8.62,0,0,0-1.25.86c-1.09.83.7,1.8,2.36,1.84,2.35.06,3.13-.28,2-3.15-1.94-5.07-8-10.83-15.17-13.38C34.18,20.4,22.33,9.41,20.39,3.8c-.6-1.71-.27-2.17-.86-1.29C17.67,5.27,17.45,13.22,19.31,17c.43.86,1.33,1.89,1.08,1.72A10.4,10.4,0,0,1,16.94,15c-1.27,1.55-4,7.9.43,12.71A27.59,27.59,0,0,0,23.36,32.12Z"/><path class="cls-1" d="M106,15.07c-.66-.56-.83-.8-.87-.74s0,0-.06,0a21.82,21.82,0,0,1-8.4,8l1.57-1.46h0A20.9,20.9,0,0,0,103,15.18a13.2,13.2,0,0,0,1.19-8.72A10.17,10.17,0,0,0,99.66,0l.19.47c.72,2.91-1.39,6.87-3,9.2a27.94,27.94,0,0,1-6.6,6.51C85.36,19.76,79.74,22.27,74.43,25,65.77,29.52,59.81,38.3,58.19,48.94c-.74,4.86,4.8,16.4-7.47,29.39-.91,1-3.25,1.15-4.33.72h0c1.27.52,3.61,0,5-.72a33,33,0,0,0,11.61-10.1l3.7-5.54a19.42,19.42,0,0,0,1.06-1.81c.07-.12.14-.26.21-.41a20.49,20.49,0,0,1,5.8-6.85,29.31,29.31,0,0,1,7.41-3.89c2.61-1,5.29-1.73,7.94-2.55a42.94,42.94,0,0,0,7.36-2.85,16,16,0,0,0,5.7-4.76,14.36,14.36,0,0,0,1.88-3.6,16.19,16.19,0,0,0,.59-1.91,13.44,13.44,0,0,0,.16-4,13.48,13.48,0,0,0-4,2.28,56.71,56.71,0,0,0,5.52-6.19C110.24,20.92,107.54,16.36,106,15.07Z"/><path class="cls-1" d="M50.72,78.33c-1.92.9-3.6.72-4.33.2,0,0-.87-.52-1.1-.7C43,76.07,37.86,74.07,30.12,77s-13.78,7.3-16.29,7,7.53,3.89,17,.18c0,0,8.85-2.49,13.39-1.22,0,0-11.17,1.2-17.53,6S9.37,106,0,107.91a37.63,37.63,0,0,0,26.12-4.61A35.5,35.5,0,0,0,36.91,92.53s2.78-4.69,7.22-6.19c0,0-5.19,7-11.78,25.42S27,135.53,21.74,139.5c0,0,9.24-1.34,17.1-12.48a33.24,33.24,0,0,0,5.53-23.38s-1.43-10.28,2.26-15.77c0,0-1.36,16.81,9.39,28S71.5,132.6,71.81,135.11a28.83,28.83,0,0,0-3.94-23.8C59.89,99.79,50.09,90.38,49.63,86c0,0,7.3,17.23,24.73,12.82a22.36,22.36,0,0,1-7.79-7.2c-3.63-5.22-7.9-8.12-12.29-9.21a10.07,10.07,0,0,1-1.07-.24c-2.49-.92-2.21-3.44-1.77-3.8"/></g></g></svg>