<svg xmlns="http://www.w3.org/2000/svg" viewBox="0 0 456.23 151.78"><defs><style>.cls-1{fill:#fff;}</style></defs><title>logo-white</title><g id="Capa_2" data-name="Capa 2"><g id="Layer_1" data-name="Layer 1"><path class="cls-1" d="M120.82,92.4a30.88,30.88,0,0,1-9.89-2.32,10.24,10.24,0,0,1-4.72-3.93,9.53,9.53,0,0,1-1.28-4.76,7.81,7.81,0,0,1,4.13-7.25,19.89,19.89,0,0,1,10.27-2.27,17.21,17.21,0,0,1,6,.95,14.15,14.15,0,0,1,4.47,2.61,14.61,14.61,0,0,1,3.23,4,4.71,4.71,0,0,0,2.73,2.16,3.91,3.91,0,0,0,3.4-.42,3.38,3.38,0,0,0,1.61-2.52,5.17,5.17,0,0,0-.95-3.44A25.74,25.74,0,0,0,135,69.38a21,21,0,0,0-6.59-3.89,25.09,25.09,0,0,0-8.81-1.41,33,33,0,0,0-11.72,2,19.14,19.14,0,0,0-8.32,5.8,14.34,14.34,0,0,0-3.06,9.27,15.83,15.83,0,0,0,5.88,12.5q5.88,5.06,16.14,6,7.86.82,11.3,4.31a10.9,10.9,0,0,1,3.44,7.86,8.53,8.53,0,0,1-2.07,5.84,13.18,13.18,0,0,1-5.42,3.6,20.93,20.93,0,0,1-7.33,1.24,21.27,21.27,0,0,1-6.79-1.08,18.47,18.47,0,0,1-5.5-2.81,10.67,10.67,0,0,1-3.27-3.81,5.1,5.1,0,0,0-2.2-2.36,4.56,4.56,0,0,0-5.88,1.45,3.31,3.31,0,0,0,0,3.23A18.33,18.33,0,0,0,100,124a26.2,26.2,0,0,0,8.36,4.64,30.87,30.87,0,0,0,10.1,1.65,32,32,0,0,0,8.65-1.16,23,23,0,0,0,7.45-3.52,17.88,17.88,0,0,0,5.22-5.83,16.6,16.6,0,0,0,1.94-8.2q0-8.19-5.5-13.2T120.82,92.4Z"/><path class="cls-1" d="M192.18,84.12a4.19,4.19,0,0,0-3,1.16,4.05,4.05,0,0,0-1.2,3.06v23.35a9.23,9.23,0,0,1-1.66,5.38,11.68,11.68,0,0,1-4.43,3.81,13.9,13.9,0,0,1-6.33,1.4,15.12,15.12,0,0,1-6.71-1.45,10.74,10.74,0,0,1-4.71-4.47,15.14,15.14,0,0,1-1.74-7.65V88.34a4.23,4.23,0,1,0-8.45,0v20.37a23.67,23.67,0,0,0,2.61,11.59,17.66,17.66,0,0,0,7.12,7.16,21.23,21.23,0,0,0,10.22,2.44,20.15,20.15,0,0,0,9.9-2.4,18.79,18.79,0,0,0,4.18-3.15v.91a4.3,4.3,0,0,0,7.28,3,4.12,4.12,0,0,0,1.16-3V88.34a4,4,0,0,0-4.22-4.22Z"/><path class="cls-1" d="M246.57,86.89a23.9,23.9,0,0,0-23.26,0,22.11,22.11,0,0,0-8.11,8.24,23.93,23.93,0,0,0-3.07,11.75v37.75a4.31,4.31,0,0,0,7.29,3,4.2,4.2,0,0,0,1.16-3V122.28a21.24,21.24,0,0,0,7,5.51,20.91,20.91,0,0,0,19.83-1A21.43,21.43,0,0,0,255,118.6a24.39,24.39,0,0,0,2.78-11.72,23,23,0,0,0-3-11.75A22.45,22.45,0,0,0,246.57,86.89Zm1.12,27.9a14.71,14.71,0,0,1-5.26,5.55,14.48,14.48,0,0,1-20.28-5.55,17.48,17.48,0,0,1,0-15.89,14.66,14.66,0,0,1,20.28-5.55,14.71,14.71,0,0,1,5.26,5.55,17.24,17.24,0,0,1,0,15.89Z"/><path class="cls-1" d="M308.74,122.2a3.94,3.94,0,0,0-1.49-2.73,3.6,3.6,0,0,0-2.53-.87,4.71,4.71,0,0,0-2.69,1,16.08,16.08,0,0,1-4.34,2.19,15.64,15.64,0,0,1-5.26,1,16.64,16.64,0,0,1-8.36-2.07,15,15,0,0,1-7.53-10.85H308a3.79,3.79,0,0,0,2.74-1,3.49,3.49,0,0,0,1.07-2.61,26,26,0,0,0-2.44-11.55,18.59,18.59,0,0,0-7.08-7.86,20.68,20.68,0,0,0-11.09-2.86,22.59,22.59,0,0,0-11.59,2.94,20.9,20.9,0,0,0-7.91,8.11,24.4,24.4,0,0,0-2.85,12,23,23,0,0,0,3,11.88,21.47,21.47,0,0,0,8.36,8.12,25.35,25.35,0,0,0,20.2,1.53,22.79,22.79,0,0,0,7-3.64A3,3,0,0,0,308.74,122.2ZM283.12,93.06A15,15,0,0,1,291.19,91a12.05,12.05,0,0,1,11.51,7.08,17.07,17.07,0,0,1,1.47,5.09H276.63a17,17,0,0,1,1.4-4.43A13.31,13.31,0,0,1,283.12,93.06Z"/><path class="cls-1" d="M353.9,91a3.23,3.23,0,0,0,1-1.78c.39-1.49-.24-2.78-1.86-3.85s-4.1-1.62-7.41-1.62A18.4,18.4,0,0,0,336.47,86a18.13,18.13,0,0,0-4.8,3.9V88.34a3.66,3.66,0,0,0-4.14-4.14,3.76,3.76,0,0,0-4.14,4.14v37a4.1,4.1,0,0,0,1.08,3.1,4.23,4.23,0,0,0,3.06,1,4.13,4.13,0,0,0,3.11-1.07,4.29,4.29,0,0,0,1-3.06V101.17a8.59,8.59,0,0,1,2.44-6.29,12.88,12.88,0,0,1,6.67-3.39,23.28,23.28,0,0,1,9.52.16,4.81,4.81,0,0,0,2,.09A3.42,3.42,0,0,0,353.9,91Z"/><path class="cls-1" d="M384.73,64.83a16.5,16.5,0,0,0-9.39,2.48,14.55,14.55,0,0,0-5.42,6.83,26.73,26.73,0,0,0-1.74,10v1.74h-6.46a2.13,2.13,0,0,0-2.23,2.23,2.13,2.13,0,0,0,2.23,2.24h6.46V127a2.4,2.4,0,0,0,2.48,2.48,2.51,2.51,0,0,0,1.86-.7,2.41,2.41,0,0,0,.71-1.78V90.33h10.93a2.19,2.19,0,0,0,1.61-.62,2.23,2.23,0,0,0,.62-1.62,2.19,2.19,0,0,0-.62-1.61,2.15,2.15,0,0,0-1.61-.62H373.23V84.12a23.78,23.78,0,0,1,1.12-7.58,10,10,0,0,1,10.38-7.24,2.6,2.6,0,0,0,1.83-.62,2.31,2.31,0,0,0,0-3.23A2.6,2.6,0,0,0,384.73,64.83Z"/><path class="cls-1" d="M406.67,124.52H404.6a4.86,4.86,0,0,1-4.18-2.44,11.2,11.2,0,0,1-1.61-6.25V67.31a2.3,2.3,0,0,0-2.49-2.48,2.51,2.51,0,0,0-1.78.66,2.37,2.37,0,0,0-.7,1.82v48.52a17.15,17.15,0,0,0,1.37,7.11,11.49,11.49,0,0,0,3.8,4.81,9.45,9.45,0,0,0,5.59,1.73h1.66a2.37,2.37,0,0,0,1.82-.7,2.5,2.5,0,0,0,.66-1.78,2.65,2.65,0,0,0-.58-1.82A1.88,1.88,0,0,0,406.67,124.52Z"/><path class="cls-1" d="M454.69,84.28a2.17,2.17,0,0,0-3.07,1.25L434.7,122.2,417.93,85.44a2.21,2.21,0,0,0-1.33-1.32,2.65,2.65,0,0,0-1.9.25,2.19,2.19,0,0,0-1.32,1.32,2.67,2.67,0,0,0,.24,1.91l18.14,39.73a3.17,3.17,0,0,0,.31.55l-8.26,17.91a2,2,0,0,0,1.24,3.07,3.52,3.52,0,0,0,1.16.25c.77,0,1.41-.5,1.9-1.49l27.82-60.27A2,2,0,0,0,454.69,84.28Z"/><path class="cls-1" d="M270.51,141.2a4,4,0,0,1,1.23-.89,3.55,3.55,0,0,1,1.48-.32,3.61,3.61,0,0,1,1.4.23,3.85,3.85,0,0,1,1,.66.7.7,0,0,0,.5.16.67.67,0,0,0,.43-.18.58.58,0,0,0,.18-.43,1,1,0,0,0,0-.2.48.48,0,0,0-.08-.18.88.88,0,0,0-.17-.16A5.11,5.11,0,0,0,275,139a5.16,5.16,0,0,0-1.77-.26,4.88,4.88,0,0,0-2,.41,5.25,5.25,0,0,0-1.64,1.14,5.53,5.53,0,0,0-1.1,1.7,5.59,5.59,0,0,0-.39,2.09,5.67,5.67,0,0,0,.39,2.12,5.3,5.3,0,0,0,1.1,1.7,5,5,0,0,0,1.64,1.14,5.11,5.11,0,0,0,2,.41,5,5,0,0,0,1.73-.3,5.08,5.08,0,0,0,1.55-.87.87.87,0,0,0,.16-.23.75.75,0,0,0,0-.26.61.61,0,0,0-.16-.46.6.6,0,0,0-.39-.19.76.76,0,0,0-.48.15,4.51,4.51,0,0,1-1.17.65,3.44,3.44,0,0,1-1.29.24,3.55,3.55,0,0,1-1.48-.32,3.93,3.93,0,0,1-1.23-.87,4.4,4.4,0,0,1-.82-4.49A4.16,4.16,0,0,1,270.51,141.2Z"/><path class="cls-1" d="M285.64,139.34a.64.64,0,0,0-.65-.47.7.7,0,0,0-.66.47l-3.75,9a.66.66,0,0,0,0,.68.62.62,0,0,0,.57.32.67.67,0,0,0,.64-.42l.77-1.88h4.79l.75,1.88a.71.71,0,0,0,.26.31.7.7,0,0,0,.39.11.65.65,0,0,0,.58-.3.72.72,0,0,0,.05-.67Zm-2.57,6.52,1.94-4.75,1.92,4.75Z"/><path class="cls-1" d="M301.42,138.87a.67.67,0,0,0-.49.19.66.66,0,0,0-.2.51v7.31l-5.83-7.76a.72.72,0,0,0-1-.06.69.69,0,0,0-.19.51v9.05a.67.67,0,0,0,.19.49.64.64,0,0,0,.49.2.63.63,0,0,0,.5-.2.68.68,0,0,0,.2-.49v-7.3l5.83,7.75a.52.52,0,0,0,.25.18.74.74,0,0,0,.28.06.63.63,0,0,0,.5-.2.71.71,0,0,0,.18-.49v-9.05a.72.72,0,0,0-.18-.51A.66.66,0,0,0,301.42,138.87Z"/><path class="cls-1" d="M315.2,138.87a.68.68,0,0,0-.5.19.69.69,0,0,0-.2.51v7.31l-5.83-7.76a.7.7,0,0,0-1-.06.69.69,0,0,0-.2.51v9.05a.68.68,0,0,0,.2.49.63.63,0,0,0,.49.2.65.65,0,0,0,.5-.2.71.71,0,0,0,.19-.49v-7.3l5.83,7.75a.58.58,0,0,0,.25.18.79.79,0,0,0,.29.06.61.61,0,0,0,.49-.2.71.71,0,0,0,.19-.49v-9.05a.73.73,0,0,0-.19-.51A.64.64,0,0,0,315.2,138.87Z"/><path class="cls-1" d="M325.26,139.34a.64.64,0,0,0-.65-.47.7.7,0,0,0-.66.47l-3.75,9a.66.66,0,0,0,0,.68.62.62,0,0,0,.57.32.67.67,0,0,0,.64-.42l.77-1.88H327l.76,1.88a.69.69,0,0,0,.64.42.64.64,0,0,0,.58-.3.72.72,0,0,0,.05-.67Zm-2.57,6.52,1.94-4.75,1.92,4.75Z"/><path class="cls-1" d="M338.94,143.67a2.47,2.47,0,0,0,1-.83,2.08,2.08,0,0,0,.36-1.19,2.6,2.6,0,0,0-.4-1.44,2.72,2.72,0,0,0-1.08-1,3.52,3.52,0,0,0-1.6-.35H334a.68.68,0,0,0-.5.19.69.69,0,0,0-.2.51v9.05a.68.68,0,0,0,.2.49.65.65,0,0,0,.5.2h3.47a3.8,3.8,0,0,0,1.78-.4,3.12,3.12,0,0,0,1.21-1.12,3.06,3.06,0,0,0,.44-1.63,2.45,2.45,0,0,0-.54-1.65A2.6,2.6,0,0,0,338.94,143.67Zm-4.25-3.52h2.5a2,2,0,0,1,1.25.37,1.32,1.32,0,0,1,.49,1.13,1.34,1.34,0,0,1-.49,1.14,2,2,0,0,1-1.25.37h-2.5Zm4.6,7a1.8,1.8,0,0,1-.73.63,2.68,2.68,0,0,1-1.09.21h-2.78v-3.58h2.78a2.86,2.86,0,0,1,1.09.19,1.67,1.67,0,0,1,.73.57,1.57,1.57,0,0,1,.27.95A1.86,1.86,0,0,1,339.29,147.19Z"/><path class="cls-1" d="M346.34,138.87a.67.67,0,0,0-.7.7v9.05a.68.68,0,0,0,.2.49.66.66,0,0,0,.5.2.65.65,0,0,0,.5-.2.67.67,0,0,0,.19-.49v-9.05a.69.69,0,0,0-.19-.51A.68.68,0,0,0,346.34,138.87Z"/><path class="cls-1" d="M356.09,143.32a4.9,4.9,0,0,1-1.6-.37,1.6,1.6,0,0,1-.76-.64,1.51,1.51,0,0,1-.21-.77,1.26,1.26,0,0,1,.67-1.17,3.24,3.24,0,0,1,1.66-.36,2.82,2.82,0,0,1,1,.15,2.14,2.14,0,0,1,.72.42,2.48,2.48,0,0,1,.53.66.7.7,0,0,0,.44.34.63.63,0,0,0,.55-.06.59.59,0,0,0,.26-.41.85.85,0,0,0-.16-.56,3.8,3.8,0,0,0-.79-.94,3.21,3.21,0,0,0-1.06-.63,3.88,3.88,0,0,0-1.42-.23,5.45,5.45,0,0,0-1.9.32,3.07,3.07,0,0,0-1.34.94,2.3,2.3,0,0,0-.49,1.49,2.54,2.54,0,0,0,.94,2,4.6,4.6,0,0,0,2.61,1,3,3,0,0,1,1.83.69,1.77,1.77,0,0,1,.55,1.28,1.4,1.4,0,0,1-.33.94,2.12,2.12,0,0,1-.88.58,3.44,3.44,0,0,1-1.18.2,3.67,3.67,0,0,1-1.1-.17,3.11,3.11,0,0,1-.89-.46,1.86,1.86,0,0,1-.53-.61.76.76,0,0,0-.35-.38.66.66,0,0,0-.47-.08.7.7,0,0,0-.48.31.56.56,0,0,0,0,.52,2.9,2.9,0,0,0,.85,1.11,4.21,4.21,0,0,0,1.35.75,4.89,4.89,0,0,0,1.63.27,5,5,0,0,0,1.4-.19,3.7,3.7,0,0,0,1.2-.57,2.91,2.91,0,0,0,.84-.94,2.69,2.69,0,0,0,.32-1.32,2.76,2.76,0,0,0-.89-2.14A4.24,4.24,0,0,0,356.09,143.32Z"/><path class="cls-1" d="M365.83,140.91a4.69,4.69,0,0,1,1.42-1,4,4,0,0,1,1.7-.37,4.93,4.93,0,0,1,1.47.21,3.24,3.24,0,0,1,1.22.7l.12.09.11.05.1,0a.35.35,0,0,0,.3-.13.43.43,0,0,0,.1-.29.31.31,0,0,0-.12-.26,5,5,0,0,0-1.55-.9,5.31,5.31,0,0,0-3.8.13,5.35,5.35,0,0,0-1.66,1.16,5.57,5.57,0,0,0-1.12,1.71,5.46,5.46,0,0,0-.4,2.05,5.14,5.14,0,0,0,.42,2.07,5.37,5.37,0,0,0,1.13,1.71,5.26,5.26,0,0,0,1.67,1.17,4.89,4.89,0,0,0,2,.42,6.52,6.52,0,0,0,1.77-.25,3.48,3.48,0,0,0,1.52-.9.34.34,0,0,0,.08-.14.61.61,0,0,0,0-.14.37.37,0,0,0-.1-.28.45.45,0,0,0-.26-.14.28.28,0,0,0-.25.07,4.16,4.16,0,0,1-1.29.73,4.46,4.46,0,0,1-1.48.24,4.09,4.09,0,0,1-1.71-.35,4.36,4.36,0,0,1-1.41-1,4.63,4.63,0,0,1-1-1.46,4.54,4.54,0,0,1-.35-1.77,4.37,4.37,0,0,1,.35-1.72A4.7,4.7,0,0,1,365.83,140.91Z"/><path class="cls-1" d="M383.49,148.59H378v-9.32a.38.38,0,0,0-.4-.4.41.41,0,0,0-.28.11.4.4,0,0,0-.12.29v9.64a.38.38,0,0,0,.12.29.37.37,0,0,0,.28.11h5.9a.39.39,0,0,0,.29-.1.33.33,0,0,0,.11-.26.36.36,0,0,0-.11-.26A.44.44,0,0,0,383.49,148.59Z"/><path class="cls-1" d="M395.87,138.87a.38.38,0,0,0-.29.11.36.36,0,0,0-.11.29v6.63a2.61,2.61,0,0,1-.42,1.47,2.8,2.8,0,0,1-1.13,1,3.74,3.74,0,0,1-1.68.37,3.69,3.69,0,0,1-1.66-.37,2.76,2.76,0,0,1-1.14-1,2.69,2.69,0,0,1-.41-1.47v-6.63a.39.39,0,0,0-.1-.29.37.37,0,0,0-.3-.11.36.36,0,0,0-.28.11.37.37,0,0,0-.12.29v6.63a3.41,3.41,0,0,0,.52,1.88,3.48,3.48,0,0,0,1.42,1.29,4.57,4.57,0,0,0,2.07.46,4.66,4.66,0,0,0,2.09-.46,3.48,3.48,0,0,0,1.42-1.29,3.41,3.41,0,0,0,.52-1.88v-6.63a.4.4,0,0,0-.11-.29A.36.36,0,0,0,395.87,138.87Z"/><path class="cls-1" d="M406.55,143.63a2.62,2.62,0,0,0,1.07-.88,2.29,2.29,0,0,0,.4-1.35,2.33,2.33,0,0,0-.37-1.31,2.66,2.66,0,0,0-1-.89,2.85,2.85,0,0,0-1.36-.33H402a.38.38,0,0,0-.29.11.4.4,0,0,0-.11.29v9.64a.34.34,0,0,0,.14.3.65.65,0,0,0,.38.1h3.36a3.34,3.34,0,0,0,1.59-.38,2.9,2.9,0,0,0,1.09-1.08,3.13,3.13,0,0,0,.39-1.57,2.6,2.6,0,0,0-.55-1.71A2.79,2.79,0,0,0,406.55,143.63Zm-4.13-4h2.88a2.08,2.08,0,0,1,1.38.45,1.56,1.56,0,0,1,.54,1.28,1.82,1.82,0,0,1-.54,1.37,1.93,1.93,0,0,1-1.38.51h-2.88Zm5.05,7.77a2.07,2.07,0,0,1-.8.78,2.26,2.26,0,0,1-1.17.29h-3.08v-4.43h3.08a2.36,2.36,0,0,1,1.17.29,2,2,0,0,1,.8.77,2.16,2.16,0,0,1,.3,1.14A2.25,2.25,0,0,1,407.47,147.44Z"/><path class="cls-1" d="M25.41,34.94a7.05,7.05,0,0,1-3.7-1,6.47,6.47,0,0,0,.1,3.16c5.59,18.13,25.69,10.21,38.35,24a10.47,10.47,0,0,0-.77-4.8A22.67,22.67,0,0,0,51.76,48c-1.88-1.23-6.67-2.77-10.28-1.3-.64.26-.91,0-.63-.49a13.91,13.91,0,0,1,6-5.34,31.22,31.22,0,0,1,8.44-2.36c.87-.12.93.7.59.84s-1.31.58-2.35,1.12c-.71.38,0,1.33,1.4.68a19.22,19.22,0,0,1,3.94-1.46c1-.23,1.18.37.45.79a10.41,10.41,0,0,0-1.36.94c-1.19.9.76,2,2.57,2,2.56.07,3.4-.3,2.21-3.43C60.65,34.44,54,28.17,46.25,25.41c-9.06-3.22-22-15.18-24.07-21.27-.64-1.87-.29-2.37-.94-1.41-2,3-2.26,11.65-.23,15.71.47.94,1.45,2,1.17,1.88a11.32,11.32,0,0,1-3.75-4C17,18,14.12,24.93,18.9,30.16,21.34,32.83,25.52,34.93,25.41,34.94Z"/><path class="cls-1" d="M115.33,16.4c-.72-.61-.91-.87-1-.81s0,0-.06,0a23.81,23.81,0,0,1-9.14,8.67l1.7-1.59h0A22.73,22.73,0,0,0,112,16.52,14.35,14.35,0,0,0,113.31,7a11.06,11.06,0,0,0-4.88-7l.21.51c.78,3.17-1.52,7.47-3.27,10a30.21,30.21,0,0,1-7.18,7.09C92.87,21.5,86.75,24.23,81,27.23c-9.42,4.88-15.91,14.45-17.67,26-.8,5.3,5.22,17.86-8.12,32-1,1.06-3.54,1.26-4.71.79h0c1.38.56,3.92,0,5.49-.79,0,0,6.68-3,12.63-11l4-6a19.54,19.54,0,0,0,1.16-2L74,65.8a21.94,21.94,0,0,1,6.31-7.46,31.82,31.82,0,0,1,8.06-4.23C91.21,53,94.13,52.22,97,51.33a46.89,46.89,0,0,0,8-3.1,17.53,17.53,0,0,0,6.2-5.17,16.71,16.71,0,0,0,2-3.93,19,19,0,0,0,.63-2.07,14.49,14.49,0,0,0,.18-4.32,14.85,14.85,0,0,0-4.35,2.48,61,61,0,0,0,6-6.74C119.94,22.76,117,17.8,115.33,16.4Z"/><path class="cls-1" d="M55.19,85.22c-2.09,1-3.93.79-4.71.23,0,0-1-.58-1.21-.77-2.53-1.91-8.08-4.09-16.5-.87S17.78,91.75,15,91.4s8.2,4.23,18.45.19c0,0,9.62-2.71,14.56-1.33,0,0-12.15,1.31-19.06,6.54S10.2,115.28,0,117.4a40.92,40.92,0,0,0,28.42-5,38.56,38.56,0,0,0,11.74-11.72s3-5.1,7.86-6.73c0,0-5.65,7.59-12.83,27.66s-5.8,25.86-11.53,30.18c0,0,10-1.46,18.59-13.59a36.14,36.14,0,0,0,6-25.43s-1.56-11.18,2.45-17.16c0,0-1.47,18.29,10.22,30.43s16.84,18.24,17.18,21a31.4,31.4,0,0,0-4.28-25.89C65.17,108.57,54.5,98.33,54,93.53c0,0,7.94,18.74,26.91,14a24.39,24.39,0,0,1-8.48-7.84c-4-5.68-8.6-8.84-13.37-10,0,0-.51-.08-1.17-.26-2.7-1-2.4-3.75-1.92-4.14"/></g></g></svg>